ffmpeg version 4.2.4-1ubuntu0.1 Copyright (c) 2000-2020 the FFmpeg developers
  built with gcc 9 (Ubuntu 9.3.0-10ubuntu2)
  configuration: --prefix=/usr --extra-version=1ubuntu0.1 --toolchain=hardened --libdir=/usr/lib/x86_64-linux-gnu --incdir=/usr/include/x86_64-linux-gnu --arch=amd64 --enable-gpl --disable-stripping --enable-avresample --disable-filter=resample --enable-avisynth --enable-gnutls --enable-ladspa --enable-libaom --enable-libass --enable-libbluray --enable-libbs2b --enable-libcaca --enable-libcdio --enable-libcodec2 --enable-libflite --enable-libfontconfig --enable-libfreetype --enable-libfribidi --enable-libgme --enable-libgsm --enable-libjack --enable-libmp3lame --enable-libmysofa --enable-libopenjpeg --enable-libopenmpt --enable-libopus --enable-libpulse --enable-librsvg --enable-librubberband --enable-libshine --enable-libsnappy --enable-libsoxr --enable-libspeex --enable-libssh --enable-libtheora --enable-libtwolame --enable-libvidstab --enable-libvorbis --enable-libvpx --enable-libwavpack --enable-libwebp --enable-libx265 --enable-libxml2 --enable-libxvid --enable-libzmq --enable-libzvbi --enable-lv2 --enable-omx --enable-openal --enable-opencl --enable-opengl --enable-sdl2 --enable-libdc1394 --enable-libdrm --enable-libiec61883 --enable-nvenc --enable-chromaprint --enable-frei0r --enable-libx264 --enable-shared
  WARNING: library configuration mismatch
  avcodec     configuration: --prefix=/usr --extra-version=1ubuntu0.1 --toolchain=hardened --libdir=/usr/lib/x86_64-linux-gnu --incdir=/usr/include/x86_64-linux-gnu --arch=amd64 --enable-gpl --disable-stripping --enable-avresample --disable-filter=resample --enable-avisynth --enable-gnutls --enable-ladspa --enable-libaom --enable-libass --enable-libbluray --enable-libbs2b --enable-libcaca --enable-libcdio --enable-libcodec2 --enable-libflite --enable-libfontconfig --enable-libfreetype --enable-libfribidi --enable-libgme --enable-libgsm --enable-libjack --enable-libmp3lame --enable-libmysofa --enable-libopenjpeg --enable-libopenmpt --enable-libopus --enable-libpulse --enable-librsvg --enable-librubberband --enable-libshine --enable-libsnappy --enable-libsoxr --enable-libspeex --enable-libssh --enable-libtheora --enable-libtwolame --enable-libvidstab --enable-libvorbis --enable-libvpx --enable-libwavpack --enable-libwebp --enable-libx265 --enable-libxml2 --enable-libxvid --enable-libzmq --enable-libzvbi --enable-lv2 --enable-omx --enable-openal --enable-opencl --enable-opengl --enable-sdl2 --enable-libdc1394 --enable-libdrm --enable-libiec61883 --enable-nvenc --enable-chromaprint --enable-frei0r --enable-libx264 --enable-shared --enable-version3 --disable-doc --disable-programs --enable-libaribb24 --enable-liblensfun --enable-libopencore_amrnb --enable-libopencore_amrwb --enable-libtesseract --enable-libvo_amrwbenc
  libavutil      56. 31.100 / 56. 31.100
  libavcodec     58. 54.100 / 58. 54.100
  libavformat    58. 29.100 / 58. 29.100
  libavdevice    58.  8.100 / 58.  8.100
  libavfilter     7. 57.100 /  7. 57.100
  libavresample   4.  0.  0 /  4.  0.  0
  libswscale      5.  5.100 /  5.  5.100
  libswresample   3.  5.100 /  3.  5.100
  libpostproc    55.  5.100 / 55.  5.100
Input #0, image2pipe, from 'pipe:':
  Duration: N/A, bitrate: N/A
    Stream #0:0: Video: ppm, rgb24, 320x240, 20 fps, 20 tbr, 20 tbn, 20 tbc
Stream mapping:
  Stream #0:0 -> #0:0 (ppm (native) -> h264 (libx264))
[libx264 @ 0x560a5cdfcf40] using cpu capabilities: MMX2 SSE2Fast SSSE3 SSE4.2 AVX FMA3 BMI2 AVX2
[libx264 @ 0x560a5cdfcf40] profile High, level 1.3
[libx264 @ 0x560a5cdfcf40] 264 - core 155 r2917 0a84d98 - H.264/MPEG-4 AVC codec - Copyleft 2003-2018 - http://www.videolan.org/x264.html - options: cabac=1 ref=3 deblock=1:0:0 analyse=0x3:0x113 me=hex subme=7 psy=1 psy_rd=1.00:0.00 mixed_ref=1 me_range=16 chroma_me=1 trellis=1 8x8dct=1 cqm=0 deadzone=21,11 fast_pskip=1 chroma_qp_offset=-2 threads=7 lookahead_threads=1 sliced_threads=0 nr=0 decimate=1 interlaced=0 bluray_compat=0 constrained_intra=0 bframes=3 b_pyramid=2 b_adapt=1 b_bias=0 direct=1 weightb=1 open_gop=0 weightp=2 keyint=250 keyint_min=20 scenecut=40 intra_refresh=0 rc_lookahead=40 rc=abr mbtree=1 bitrate=400 ratetol=1.0 qcomp=0.60 qpmin=0 qpmax=69 qpstep=4 ip_ratio=1.40 aq=1:1.00
Output #0, mp4, to './mission_records/031eaa6b-4d97-4d7f-ba30-7c317eed6459/video.mp4':
  Metadata:
    encoder         : Lavf58.29.100
    Stream #0:0: Video: h264 (libx264) (avc1 / 0x31637661), yuv420p, 320x240, q=-1--1, 400 kb/s, 20 fps, 10240 tbn, 20 tbc
    Metadata:
      encoder         : Lavc58.54.100 libx264
    Side data:
      cpb: bitrate max/min/avg: 0/0/400000 buffer size: 0 vbv_delay: -1
frame=   32 fps=0.0 q=0.0 size=       0kB time=00:00:00.00 bitrate=N/A speed=   0x    frame=   41 fps= 40 q=0.0 size=       0kB time=00:00:00.00 bitrate=N/A speed=   0x    frame=   50 fps= 33 q=0.0 size=       0kB time=00:00:00.00 bitrate=N/A speed=   0x    frame=   59 fps= 28 q=22.0 size=       0kB time=00:00:00.25 bitrate=   1.5kbits/s speed=0.121x    frame=   68 fps= 26 q=22.0 size=       0kB time=00:00:00.70 bitrate=   0.5kbits/s speed=0.271x    frame=   78 fps= 25 q=25.0 size=       0kB time=00:00:01.20 bitrate=   0.3kbits/s speed=0.385x    frame=   87 fps= 24 q=25.0 size=       0kB time=00:00:01.65 bitrate=   0.2kbits/s speed=0.454x    frame=   96 fps= 23 q=25.0 size=       0kB time=00:00:02.10 bitrate=   0.2kbits/s speed=0.503x    frame=  105 fps= 22 q=25.0 size=       0kB time=00:00:02.55 bitrate=   0.2kbits/s speed=0.542x    frame=  115 fps= 22 q=25.0 size=       0kB time=00:00:03.05 bitrate=   0.1kbits/s speed=0.582x    frame=  124 fps= 21 q=25.0 size=       0kB time=00:00:03.50 bitrate=   0.1kbits/s speed=0.606x    frame=  133 fps= 21 q=25.0 size=       0kB time=00:00:03.95 bitrate=   0.1kbits/s speed=0.626x    frame=  142 fps= 21 q=25.0 size=       0kB time=00:00:04.40 bitrate=   0.1kbits/s speed=0.644x    frame=  152 fps= 21 q=25.0 size=       0kB time=00:00:04.90 bitrate=   0.1kbits/s speed=0.663x    frame=  161 fps= 20 q=25.0 size=     256kB time=00:00:05.35 bitrate= 392.1kbits/s speed=0.672x    frame=  170 fps= 20 q=25.0 size=     256kB time=00:00:05.80 bitrate= 361.6kbits/s speed=0.683x    frame=  179 fps= 20 q=25.0 size=     256kB time=00:00:06.25 bitrate= 335.6kbits/s speed=0.695x    frame=  188 fps= 20 q=25.0 size=     256kB time=00:00:06.70 bitrate= 313.1kbits/s speed=0.706x    frame=  197 fps= 20 q=25.0 size=     256kB time=00:00:07.15 bitrate= 293.4kbits/s speed=0.714x    frame=  206 fps= 20 q=26.0 size=     256kB time=00:00:07.60 bitrate= 276.0kbits/s speed=0.722x    frame=  215 fps= 19 q=26.0 size=     256kB time=00:00:08.05 bitrate= 260.6kbits/s speed=0.729x    frame=  224 fps= 19 q=26.0 size=     256kB time=00:00:08.50 bitrate= 246.8kbits/s speed=0.734x    frame=  234 fps= 19 q=26.0 size=     256kB time=00:00:09.00 bitrate= 233.1kbits/s speed=0.743x    frame=  243 fps= 19 q=26.0 size=     256kB time=00:00:09.45 bitrate= 222.0kbits/s speed=0.747x    frame=  252 fps= 19 q=26.0 size=     256kB time=00:00:09.90 bitrate= 211.9kbits/s speed=0.752x    frame=  261 fps= 19 q=26.0 size=     512kB time=00:00:10.35 bitrate= 405.3kbits/s speed=0.756x    frame=  270 fps= 19 q=25.0 size=     512kB time=00:00:10.80 bitrate= 388.4kbits/s speed=0.761x    frame=  278 fps= 19 q=25.0 size=     512kB time=00:00:11.20 bitrate= 374.5kbits/s speed=0.762x    frame=  287 fps= 19 q=25.0 size=     512kB time=00:00:11.65 bitrate= 360.1kbits/s speed=0.764x    frame=  292 fps= 19 q=-1.0 Lsize=     701kB time=00:00:14.45 bitrate= 397.2kbits/s speed=0.916x    
video:696kB audio:0kB subtitle:0kB other streams:0kB global headers:0kB muxing overhead: 0.607733%
[libx264 @ 0x560a5cdfcf40] frame I:2     Avg QP:18.86  size:  8235
[libx264 @ 0x560a5cdfcf40] frame P:74    Avg QP:19.50  size:  4961
[libx264 @ 0x560a5cdfcf40] frame B:216   Avg QP:22.11  size:  1523
[libx264 @ 0x560a5cdfcf40] consecutive B-frames:  1.0%  0.7%  1.0% 97.3%
[libx264 @ 0x560a5cdfcf40] mb I  I16..4: 18.7% 52.7% 28.7%
[libx264 @ 0x560a5cdfcf40] mb P  I16..4:  4.9%  3.0%  1.9%  P16..4: 19.7% 31.8% 30.4%  0.0%  0.0%    skip: 8.2%
[libx264 @ 0x560a5cdfcf40] mb B  I16..4:  0.1%  0.0%  0.0%  B16..8: 49.2% 16.2%  6.4%  direct: 4.8%  skip:23.3%  L0:44.3% L1:48.7% BI: 6.9%
[libx264 @ 0x560a5cdfcf40] final ratefactor: 20.30
[libx264 @ 0x560a5cdfcf40] 8x8 transform intra:34.9% inter:48.4%
[libx264 @ 0x560a5cdfcf40] coded y,uvDC,uvAC intra: 49.9% 51.2% 32.4% inter: 22.5% 19.1% 3.1%
[libx264 @ 0x560a5cdfcf40] i16 v,h,dc,p:  6% 49% 45%  1%
[libx264 @ 0x560a5cdfcf40] i8 v,h,dc,ddl,ddr,vr,hd,vl,hu:  7% 21% 21%  4% 10%  7% 15%  4% 10%
[libx264 @ 0x560a5cdfcf40] i4 v,h,dc,ddl,ddr,vr,hd,vl,hu: 13% 26% 19%  5%  9%  6% 10%  5%  7%
[libx264 @ 0x560a5cdfcf40] i8c dc,h,v,p: 48% 42%  8%  3%
[libx264 @ 0x560a5cdfcf40] Weighted P-Frames: Y:6.8% UV:4.1%
[libx264 @ 0x560a5cdfcf40] ref P L0: 78.1%  6.8% 11.6%  3.4%  0.1%
[libx264 @ 0x560a5cdfcf40] ref B L0: 92.6%  6.5%  0.9%
[libx264 @ 0x560a5cdfcf40] ref B L1: 96.2%  3.8%
[libx264 @ 0x560a5cdfcf40] kb/s:390.38
